# AST/ASF file generated using VICON BodyLanguage
# -----------------------------------------------
:version 1.10
:name VICON
:units
  mass 1.0
  length 0.45
  angle deg
:documentation
   .ast/.asf automatically generated from VICON data using
   VICON BodyBuilder and BodyLanguage model FoxedUp or BRILLIANT.MOD
:root
   order TX TY TZ RX RY RZ
   axis XYZ
   position 0 0 0  
   orientation 0 0 0 
:bonedata
  begin
     id 1 
     name lhipjoint
     direction 0.577973 -0.728611 0.367523 
     length 2.48544 
     axis 0 0 0  XYZ
  end
  begin
     id 2 
     name lfemur
     direction 0.34202 -0.939693 0  
     length 7.1921  
     axis 0 0 20  XYZ
    dof rx ry rz
    limits (-160.0 20.0)
           (-70.0 70.0)
           (-60.0 70.0)
  end
  begin
     id 3 
     name ltibia
     direction 0.34202 -0.939693 0   
     length 7.71059   
     axis 0 0 20   XYZ
    dof rx
    limits (-10.0 170.0)
  end
  begin
     id 4 
     name lfoot
     direction 0.089538 -0.246004 0.965124   
     length 2.19909   
     axis -90 7.62852e-016 20   XYZ
    dof rx rz
    limits (-45.0 90.0)
           (-70.0 20.0)
  end
  begin
     id 5 
     name ltoes
     direction 1.53544e-011 -4.21829e-011 1   
     length 1.10116   
     axis -90 7.62852e-016 20   XYZ
    dof rx
    limits (-90.0 20.0)
  end
  begin
     id 6 
     name rhipjoint
     direction -0.554414 -0.743062 0.374812   
     length 2.4371  
     axis 0 0 0  XYZ 
  end
  begin
     id 7 
     name rfemur
     direction -0.34202 -0.939693 0   
     length 7.47254   
     axis 0 0 -20   XYZ
    dof rx ry rz
    limits (-160.0 20.0)
           (-70.0 70.0)
           (-70.0 60.0)
  end
  begin
     id 8 
     name rtibia
     direction -0.34202 -0.939693 0   
     length 7.65855   
     axis 0 0 -20   XYZ
    dof rx
    limits (-10.0 170.0)
 end
 begin
     id 9 
     name rfoot
     direction -0.133779 -0.367555 0.92033   
     length 2.43006  
     axis -90 -7.62852e-016 -20   XYZ
    dof rx rz
    limits (-45.0 90.0)
           (-20.0 70.0)
  end
  begin
     id 10 
     name rtoes
     direction -1.53563e-011 -4.21889e-011 1   
     length 1.19625   
     axis -90 -7.62852e-016 -20   XYZ
    dof rx
    limits (-90.0 20.0)
  end
  begin
     id 11 
     name lowerback
     direction 0.0249066 0.998043 -0.0573585   
     length 2.08485   
     axis 0 0 0   XYZ
    dof rx ry rz
    limits (-20.0 45.0)
           (-30.0 30.0)
           (-30.0 30.0)
  end
  begin
     id 12 
     name upperback
     direction 0.0237884 0.999673 0.00943178   
     length 2.08515   
     axis 0 0 0   XYZ
    dof rx ry rz
    limits (-20.0 45.0)
           (-30.0 30.0)
           (-30.0 30.0)
  end
  begin
     id 13 
     name thorax
     direction 0.0106671 0.999301 0.0358174   
     length 2.09037   
     axis 0 0 0   XYZ
    dof rx ry rz
    limits (-20.0 45.0)
           (-30.0 30.0)
           (-30.0 30.0)
  end
  begin
     id 14 
     name lowerneck
     direction -0.0580016 0.987052 0.149546   
     length 1.84454   
     axis 0 0 0   XYZ
    dof rx ry rz
    limits (-20.0 45.0)
           (-30.0 30.0)
           (-30.0 30.0)
  end
  begin
     id 15 
     name upperneck
     direction 0.079456 0.981963 -0.171567   
     length 1.88141   
     axis 0 0 0   XYZ
    dof rx ry rz
    limits (-20.0 45.0)
           (-30.0 30.0)
           (-30.0 30.0)
  end
  begin
     id 16
     name head
     direction 0.0262167 0.9967 -0.0768276  
     length 1.89541  
     axis 0 0 0   XYZ
    dof rx ry rz
    limits (-20.0 45.0)
           (-30.0 30.0)
           (-30.0 30.0)
  end
  begin
     id 17 
     name lclavicle
     direction 0.946135 0.322134 -0.0325326  
     length 3.949  
     axis 0 0 0   XYZ
    dof ry rz
    limits (-20.0 10.0)
           (0.0 20.0)
  end
  begin
     id 18 
     name lhumerus
     direction 1 -4.48964e-011 1.94005e-028   
     length 5.10995   
     axis 180 -30 -90   XYZ
    dof rx ry rz
    limits (-60.0 90.0)
           (-90.0 90.0)
           (-90.0 90.0)
  end
  begin
     id 19
     name lradius
     direction 1 -4.48976e-011 2.87852e-027   
     length 3.21207   
     axis 180 -30 -90   XYZ
    dof rx
    limits (-10.0 170.0)
  end
  begin
     id 20
     name lwrist
     direction 1 -4.48963e-011 1.9975e-027   
     length 1.60604   
     axis 2.96054e-016 90 90   XYZ
    dof ry
    limits (-180.0 0.0)
 end
  begin
     id 21 
     name lhand
     direction 1 -4.48919e-011 4.00227e-027   
     length 0.63349   
     axis -2.5488e-015 90 90   XYZ
    dof rx rz
    limits (-90.0 90.0)
           (-45.0 45.0)
  end
  begin
     id 22 
     name lfingers
     direction 1 -4.49037e-011 7.9652e-027   
     length 0.510736   
     axis -5.0975e-015 90 90   XYZ
    dof rx
    limits (0.0 90.0)
  end
  begin
     id 23
     name lthumb
     direction 0.707107 -6.34922e-011 0.707107   
     length 0.733318   
     axis -90 45 -4.48553e-014   XYZ
    dof rx rz
    limits (-45.0 45.0)
           (-45.0 45.0)
  end
  begin
     id 24 
     name rclavicle
     direction -0.940085 0.328911 -0.0897654   
     length 3.93848  
     axis 0 0 0   XYZ 
    dof ry rz
    limits (-10.0 20.0)
           (-20.0 0.0)
  end
  begin
     id 25 
     name rhumerus
     direction -1 -4.48958e-011 3.02044e-027  
     length 5.25109   
     axis 180 30 90   XYZ
    dof rx ry rz
    limits (-90.0 60.0)
           (-90.0 90.0)
           (-90.0 90.0)
  end
  begin
     id 26 
     name rradius
     direction -1 -4.4897e-011 9.78352e-028   
     length 3.28364   
     axis 180 30 90   XYZ
    dof rx
    limits (-10.0 170.0)
  end
  begin
     id 27 
     name rwrist
     direction -1 -4.48943e-011 1.99918e-027   
     length 1.64182   
     axis 2.96054e-016 -90 -90   XYZ
    dof ry
    limits (-180.0 0.0)
  end
  begin
     id 28
     name rhand
     direction -1 -4.49024e-011 3.98478e-027   
     length 0.599745   
     axis -2.5488e-015 -90 -90   XYZ
    dof rx rz
    limits (-90.0 90.0)
           (-45.0 45.0)
  end
  begin
     id 29
     name rfingers
     direction -1 -4.48914e-011 8.00621e-027   
     length 0.48353   
     axis -5.0975e-015 -90 -90   XYZ
    dof rx
    limits (0.0 90.0)
  end
  begin
     id 30
     name rthumb
     direction -0.707107 -6.34992e-011 0.707107   
     length 0.694255   
     axis -90 -45 4.48553e-014   XYZ
    dof rx rz
    limits (-45.0 45.0)
           (-45.0 45.0)
  end
:hierarchy
  begin
    root lhipjoint rhipjoint lowerback
    lhipjoint lfemur
    lfemur ltibia
    ltibia lfoot
    lfoot ltoes
    rhipjoint rfemur
    rfemur rtibia
    rtibia rfoot
    rfoot rtoes
    lowerback upperback
    upperback thorax
    thorax lowerneck lclavicle rclavicle
    lowerneck upperneck
    upperneck head
    lclavicle lhumerus
    lhumerus lradius
    lradius lwrist
    lwrist lhand lthumb
    lhand lfingers
    rclavicle rhumerus
    rhumerus rradius
    rradius rwrist
    rwrist rhand rthumb
    rhand rfingers
  end

#!OML:ASF E:\CV Data\Top Level 1\Subject 1\Session 1\player.ASF
:FULLY-SPECIFIED
:DEGREES
391
root 1.19475 25.0876 27.8046 -27.5945 67.3461 -31.5399
lowerback 2.30551 -3.42297 -1.59356
upperback -8.88181 -4.59157 -0.418571
thorax -10.6476 -2.03542 0.945552
lowerneck -1.12698 -14.9722 -18.5327
upperneck -12.9223 -18.7813 19.138
head 0.0726523 -9.10241 8.08908
rclavicle 4.21423e-014 1.90833e-014
rhumerus 93.6319 -39.3746 -64.5372
rradius 59.1306
rwrist -20.7239
rhand -19.7876 7.7703
rfingers 7.12502
rthumb 6.54487 -22.1086
lclavicle 4.21423e-014 1.90833e-014
lhumerus 84.6011 -16.4785 42.3118
lradius 68.4554
lwrist 41.5089
lhand -32.4893 28.4122
lfingers 7.12502
lthumb -5.72113 58.315
rfemur -14.1408 -8.39703 33.0443
rtibia 51.9238
rfoot 30.5095 5.39621
rtoes 9.07239
lfemur 7.01422 3.2107 -4.5771
ltibia 43.4966
lfoot 28.4951 4.93843
ltoes 32.6454
392
root 1.19257 25.3395 28.0716 -30.6889 69.0692 -34.5385
lowerback 2.20916 -3.78847 -1.94214
upperback -8.76492 -5.12765 -0.736209
thorax -10.4479 -2.28498 0.846494
lowerneck -0.850233 -15.1476 -18.719
upperneck -13.0587 -19.0505 19.3664
head 0.0829548 -9.24287 8.1751
rclavicle -1.05753e-013 -7.79236e-014
rhumerus 93.7228 -40.821 -63.3382
rradius 58.3027
rwrist -16.7945
rhand -20.0101 7.95542
rfingers 7.12502
rthumb 6.33002 -21.93
lclavicle -1.05753e-013 -7.79236e-014
lhumerus 83.0218 -20.9169 41.0916
lradius 69.9876
lwrist 42.1919
lhand -32.2795 25.2865
lfingers 7.12502
lthumb -5.51857 55.1946
rfemur -14.3053 -8.5207 34.085
rtibia 51.2255
rfoot 30.8082 5.5537
rtoes 9.69492
lfemur 7.36702 2.72145 -3.88086
ltibia 42.5686
lfoot 26.9321 5.47042
ltoes 32.5384
393
root 1.18642 25.5793 28.3399 -34.3344 70.9076 -37.9255
lowerback 2.38423 -4.15171 -2.41618
upperback -8.60836 -5.68504 -1.13071
thorax -10.3639 -2.53636 0.754264
lowerneck -0.502784 -15.3209 -18.8308
upperneck -13.2563 -19.3236 19.5675
head 0.0558183 -9.39012 8.25179
rclavicle 4.6118e-014 1.90833e-014
rhumerus 93.7217 -42.2239 -61.9828
rradius 57.2916
rwrist -13.1048
rhand -20.192 7.68327
rfingers 7.12502
rthumb 6.15447 -22.2073
lclavicle 4.6118e-014 1.90833e-014
lhumerus 81.4222 -25.6944 39.8563
lradius 70.9403
lwrist 41.9616
lhand -31.7356 22.5923
lfingers 7.12502
lthumb -4.99344 52.5135
rfemur -14.3657 -8.42924 34.9445
rtibia 50.2944
rfoot 30.5378 5.73802
rtoes 9.87439
lfemur 7.64837 2.07142 -3.28724
ltibia 41.6678
lfoot 25.557 5.85405
ltoes 32.3474
394
root 1.17701 25.8082 28.6085 -38.6226 72.8306 -41.8323
lowerback 2.79754 -4.511 -2.97914
upperback -8.4204 -6.26365 -1.6251
thorax -10.3907 -2.79235 0.626441
lowerneck -0.113306 -15.493 -18.7935
upperneck -13.4872 -19.5974 19.726
head -0.00632663 -9.5442 8.30209
rclavicle -5.00937e-014 -5.24792e-014
rhumerus 93.7249 -43.4981 -60.5993
rradius 55.9862
rwrist -9.68484
rhand -20.3181 7.07081
rfingers 7.12502
rthumb 6.03268 -22.8233
lclavicle -5.00937e-014 -5.24792e-014
lhumerus 79.7881 -30.801 38.714
lradius 71.2375
lwrist 40.7519
lhand -30.971 20.4955
lfingers 7.12502
lthumb -4.25509 50.4327
rfemur -14.3804 -8.12142 35.6003
rtibia 49.1995
rfoot 29.7372 5.92236
rtoes 9.58267
lfemur 7.82815 1.33055 -2.81122
ltibia 40.8206
lfoot 24.4161 6.1723
ltoes 32.0909
395
root 1.1652 26.0269 28.8759 -43.7279 74.8075 -46.4732
lowerback 3.41024 -4.87033 -3.61043
upperback -8.20153 -6.87005 -2.21505
thorax -10.508 -3.05662 0.457393
lowerneck 0.309127 -15.6592 -18.6609
upperneck -13.7693 -19.859 19.8853
head -0.0991532 -9.69748 8.34827
rclavicle -5.1684e-014 9.54166e-015
rhumerus 93.7039 -44.6609 -59.183
rradius 54.4278
rwrist -6.56646
rhand -20.4429 6.1159
rfingers 7.12502
rthumb 5.91221 -23.7816
lclavicle -5.1684e-014 9.54166e-015
lhumerus 78.0337 -36.1771 37.8314
lradius 70.8419
lwrist 38.626
lhand -30.1632 19.0222
lfingers 7.12502
lthumb -3.47503 48.9737
rfemur -14.3979 -7.63272 36.0307
rtibia 48.0035
rfoot 28.5372 6.07933
rtoes 8.98032
lfemur 7.8844 0.57994 -2.46078
ltibia 40.0402
lfoot 23.5301 6.44647
ltoes 31.6798
396
root 1.15091 26.236 29.1419 -50.1254 76.7445 -52.3665
lowerback 4.17839 -5.24141 -4.24468
upperback -7.94032 -7.51231 -2.84347
thorax -10.6778 -3.33622 0.271633
lowerneck 0.658102 -15.8209 -18.5174
upperneck -14.0681 -20.0949 20.0715
head -0.187056 -9.83564 8.39943
rclavicle -4.53229e-014 -5.725e-014
rhumerus 93.7514 -45.6688 -57.8149
rradius 52.6818
rwrist -3.61632
rhand -20.6865 4.94668
rfingers 7.12502
rthumb 5.67708 -24.9573
lclavicle -4.53229e-014 -5.725e-014
lhumerus 75.9496 -41.629 37.4406
lradius 69.7665
lwrist 35.6782
lhand -29.4045 18.1365
lfingers 7.12502
lthumb -2.74238 48.0987
rfemur -14.4547 -6.99474 36.2982
rtibia 46.7582
rfoot 27.1019 6.11411
rtoes 8.32057
lfemur 7.80437 -0.136823 -2.16337
ltibia 39.3327
lfoot 22.8704 6.75706
ltoes 31.1945
397
root 1.13434 26.4344 29.4056 -58.4182 78.5003 -60.1457
lowerback 5.05574 -5.62339 -4.83392
upperback -7.63506 -8.1807 -3.46204
thorax -10.8698 -3.62882 0.0916265
lowerneck 0.912629 -15.975 -18.39
upperneck -14.3911 -20.2951 20.3121
head -0.263958 -9.95271 8.4662
rclavicle 4.21423e-014 -3.18055e-015
rhumerus 93.9321 -46.4813 -56.5841
rradius 50.8068
rwrist -0.651127
rhand -20.8411 3.82473
rfingers 7.12502
rthumb 5.52777 -26.0832
lclavicle 4.21423e-014 -3.18055e-015
lhumerus 73.252 -46.9822 37.8212
lradius 68.0728
lwrist 32.082
lhand -28.8295 17.7565
lfingers 7.12502
lthumb -2.18707 47.7251
rfemur -14.5715 -6.24866 36.4695
rtibia 45.5104
rfoot 25.6113 5.96293
rtoes 7.7473
lfemur 7.58697 -0.738828 -1.84216
ltibia 38.6984
lfoot 22.438 7.00323
ltoes 30.4085
